<svg xmlns="http://www.w3.org/2000/svg" width="500" height="75" viewBox="0 0 132.29 19.844" fill="green"><path d="M0 19.505V.339h8.273q2.134 0 3.734.842 1.6.843 2.49 2.368.888 1.525.888 3.566 0 2.058-.917 3.565-.908 1.507-2.555 2.321-1.637.814-3.827.814H3.143V9.772h3.894q.917 0 1.562-.318.656-.327 1.002-.926.355-.6.355-1.413 0-.824-.355-1.404-.346-.59-1.002-.899-.645-.318-1.562-.318H5.203v15.011zm15.648 0V.339h8.273q2.134 0 3.734.777t2.49 2.236q.888 1.46.888 3.5 0 2.06-.917 3.473-.908 1.413-2.555 2.133-1.637.72-3.827.72h-4.942V9.136h3.894q.917 0 1.562-.225.656-.234 1.002-.739.355-.505.355-1.32 0-.823-.355-1.338-.346-.524-1.002-.767-.645-.253-1.562-.253h-1.835v15.011zm11.23-8.797 4.792 8.797h-5.653l-4.68-8.797zm23.284-.786q0 3.2-1.245 5.4-1.244 2.19-3.36 3.322-2.114 1.123-4.716 1.123-2.62 0-4.736-1.132-2.105-1.142-3.35-3.332-1.235-2.2-1.235-5.381 0-3.2 1.235-5.39 1.245-2.2 3.35-3.323Q38.22.077 40.841.077q2.602 0 4.717 1.132 2.115 1.123 3.36 3.322 1.244 2.19 1.244 5.391zm-5.353 0q0-1.722-.459-2.901-.449-1.189-1.338-1.797-.88-.618-2.171-.618-1.292 0-2.18.618-.88.608-1.339 1.797-.45 1.18-.45 2.901 0 1.722.45 2.91.459 1.18 1.338 1.797.89.609 2.18.609 1.292 0 2.172-.609.89-.617 1.338-1.797.459-1.188.459-2.91zm16.433-3.594q-.075-.936-.702-1.46-.618-.524-1.881-.524-.805 0-1.32.197-.505.187-.748.514t-.253.749q-.019.346.122.627.15.271.468.496.318.215.814.393.496.178 1.18.318l1.571.337q1.591.337 2.724.89 1.132.551 1.853 1.3.72.74 1.057 1.666.346.926.356 2.021-.01 1.89-.945 3.2-.936 1.311-2.677 1.994-1.731.683-4.164.683-2.5 0-4.362-.739-1.853-.74-2.882-2.274-1.02-1.544-1.03-3.95h4.942q.047.88.44 1.48.393.598 1.104.907.72.309 1.713.309.833 0 1.394-.206.562-.206.852-.57.29-.364.3-.834-.01-.44-.29-.767-.272-.337-.9-.6-.626-.27-1.693-.505l-1.91-.411q-2.545-.552-4.014-1.844-1.46-1.3-1.45-3.547-.01-1.825.973-3.191.992-1.376 2.742-2.143 1.759-.767 4.033-.767 2.32 0 4.015.776 1.694.777 2.61 2.19.927 1.404.937 3.285zm5.578 13.177V.339h8.273q2.134 0 3.734.842 1.6.843 2.49 2.368.888 1.525.888 3.566 0 2.058-.917 3.565-.908 1.507-2.555 2.321-1.637.814-3.827.814h-4.943V9.772h3.894q.917 0 1.562-.318.656-.327 1.002-.926.355-.6.355-1.413 0-.824-.355-1.404-.346-.59-1.002-.899-.645-.318-1.562-.318h-1.834v15.011zm15.647 0V.339H96.28v4.193h-8.61v3.294h7.899v4.192H87.67v3.295h8.573v4.192zm14.746 0V.339h8.273q2.134 0 3.734.777 1.6.776 2.49 2.236.888 1.46.888 3.5 0 2.06-.917 3.473-.908 1.413-2.555 2.133-1.637.72-3.827.72h-4.942V9.136h3.894q.917 0 1.562-.225.656-.234 1.002-.739.355-.505.355-1.32 0-.823-.355-1.338-.346-.524-1.002-.767-.645-.253-1.562-.253h-1.835v15.011zm11.23-8.797 4.792 8.797h-5.653l-4.68-8.797z"/><path d="M118.143 19.505h-5.615L118.854.339h7.113l6.326 19.166h-5.615l-4.193-13.888h-.15z"/></svg>
